<?xml version="1.0" encoding="UTF-8"?>
<!DOCTYPE svg PUBLIC "-//W3C//DTD SVG 1.1//EN" "http://www.w3.org/Graphics/SVG/1.1/DTD/svg11.dtd">
<svg xmlns="http://www.w3.org/2000/svg" version="1.1" width="953px" height="953px" style="shape-rendering:geometricPrecision; text-rendering:geometricPrecision; image-rendering:optimizeQuality; fill-rule:evenodd; clip-rule:evenodd" xmlns:xlink="http://www.w3.org/1999/xlink">
<g><path style="opacity:0.999" fill="#1d2f40" d="M 108.5,5.5 C 353.167,5.33333 597.834,5.5 842.5,6C 891.725,13.8894 924.559,41.3894 941,88.5C 942.846,95.0646 944.18,101.731 945,108.5C 945.667,353.167 945.667,597.833 945,842.5C 937.082,891.75 909.582,924.584 862.5,941C 855.894,942.652 849.227,943.985 842.5,945C 597.833,945.667 353.167,945.667 108.5,945C 59.2993,937.139 26.466,909.639 10,862.5C 8.15374,855.935 6.82041,849.269 6,842.5C 5.83282,602.597 5.33282,362.764 4.5,123C 6.39456,79.5313 25.3946,45.8646 61.5,22C 76.2908,13.5853 91.9574,8.08535 108.5,5.5 Z"/></g>
<g><path style="opacity:1" fill="#f19848" d="M 760.5,129.5 C 774.01,128.664 783.51,134.331 789,146.5C 810.76,339.342 832.594,532.175 854.5,725C 853.012,735.496 847.346,742.829 837.5,747C 832.187,747.999 826.854,748.332 821.5,748C 819.333,747.167 817.833,745.667 817,743.5C 817.816,731.903 813.649,722.736 804.5,716C 800.35,714.196 796.017,713.029 791.5,712.5C 767.834,715.296 744.167,718.13 720.5,721C 711.852,723.969 707.518,729.969 707.5,739C 707.757,744.392 708.424,749.726 709.5,755C 708.697,758.622 706.697,761.289 703.5,763C 575.504,777.537 447.504,792.037 319.5,806.5C 315.497,806.751 312.664,805.084 311,801.5C 309.782,794.873 308.782,788.206 308,781.5C 305.957,774.791 301.457,770.957 294.5,770C 270.809,771.743 247.142,774.076 223.5,777C 209.881,779.284 202.548,787.284 201.5,801C 202.145,805.168 202.312,809.335 202,813.5C 201.654,815.848 200.487,817.681 198.5,819C 182.022,824.364 169.856,819.53 162,804.5C 140.24,611.658 118.406,418.825 96.5,226C 99.7557,208.352 110.422,200.352 128.5,202C 131,203.167 132.833,205 134,207.5C 133.412,222.21 139.912,232.043 153.5,237C 180.652,235.465 207.652,232.465 234.5,228C 242.41,223.173 246.744,216.173 247.5,207C 246.607,201.848 246.44,196.681 247,191.5C 248.167,190.333 249.333,189.167 250.5,188C 376.67,173.458 502.837,158.958 629,144.5C 632.256,145.422 634.589,147.422 636,150.5C 635.629,163.102 640.795,172.602 651.5,179C 654.764,179.939 658.097,180.439 661.5,180.5C 686.629,178.171 711.629,175.005 736.5,171C 742.911,167.694 747.078,162.528 749,155.5C 749.22,148.822 749.22,142.155 749,135.5C 749.465,134.069 750.299,132.903 751.5,132C 754.579,131.027 757.579,130.194 760.5,129.5 Z"/></g>
<g><path style="opacity:1" fill="#1d2f40" d="M 733.5,222.5 C 747.238,222.11 756.072,228.443 760,241.5C 762.619,265.41 765.453,289.243 768.5,313C 766.444,325.722 759.111,333.056 746.5,335C 722.22,338.217 697.886,340.55 673.5,342C 664.333,339.5 658.5,333.667 656,324.5C 653.527,300.573 650.694,276.74 647.5,253C 649.102,242.065 655.102,234.732 665.5,231C 688.335,228.335 711.001,225.502 733.5,222.5 Z"/></g>
<g><path style="opacity:1" fill="#1d2f40" d="M 594.5,229.5 C 599.772,228.549 603.272,230.549 605,235.5C 611.203,289.829 617.37,344.162 623.5,398.5C 623.867,401.933 622.534,404.433 619.5,406C 519.818,417.539 420.151,429.039 320.5,440.5C 318.247,439.747 316.413,438.414 315,436.5C 308.355,381.359 301.855,326.192 295.5,271C 295.349,266.151 297.683,263.484 302.5,263C 400.026,252.22 497.36,241.053 594.5,229.5 Z"/></g>
<g><path style="opacity:1" fill="#1d2f40" d="M 230.5,279.5 C 242.976,278.81 251.809,284.144 257,295.5C 260.381,319.425 263.214,343.425 265.5,367.5C 264.682,381.486 257.349,389.653 243.5,392C 221.176,394.582 198.843,397.082 176.5,399.5C 164.894,398.616 157.394,392.616 154,381.5C 151.239,357.647 148.405,333.814 145.5,310C 147.088,299.423 152.754,292.09 162.5,288C 185.315,285.189 207.982,282.356 230.5,279.5 Z"/></g>
<g><path style="opacity:1" fill="#1d2f40" d="M 751.5,384.5 C 764.423,383.943 773.256,389.609 778,401.5C 780.797,425.505 783.63,449.505 786.5,473.5C 785.16,487.005 777.827,494.838 764.5,497C 740.22,500.217 715.886,502.55 691.5,504C 685.475,502.078 680.641,498.578 677,493.5C 675.395,490.352 674.395,487.019 674,483.5C 670.783,459.221 668.45,434.887 667,410.5C 669.43,401.737 674.93,395.904 683.5,393C 706.333,390.335 729,387.502 751.5,384.5 Z"/></g>
<g><path style="opacity:1" fill="#1d2f40" d="M 248.5,441.5 C 261.579,440.951 270.746,446.618 276,458.5C 278.688,482.695 281.522,506.861 284.5,531C 282.996,541.163 277.663,548.497 268.5,553C 244.172,555.87 219.838,558.703 195.5,561.5C 182.33,561.011 174.497,554.344 172,541.5C 169.317,518.853 166.817,496.186 164.5,473.5C 164.669,461.653 170.336,453.819 181.5,450C 203.97,447.117 226.303,444.283 248.5,441.5 Z"/></g>
<g><path style="opacity:1" fill="#1d2f40" d="M 628.5,504.5 C 631.754,505.043 634.254,506.71 636,509.5C 642.464,566.505 648.964,623.505 655.5,680.5C 655.367,685.731 652.701,688.564 647.5,689C 549.482,700.058 451.482,711.224 353.5,722.5C 350.786,722.06 348.62,720.726 347,718.5C 339.986,660.871 333.152,603.205 326.5,545.5C 326.94,542.786 328.274,540.62 330.5,539C 429.996,527.645 529.329,516.145 628.5,504.5 Z"/></g>
<g><path style="opacity:1" fill="#1d2f40" d="M 769.5,546.5 C 781.802,545.747 790.635,551.08 796,562.5C 799.769,588.749 802.435,615.082 804,641.5C 799.682,653.411 791.182,659.578 778.5,660C 755.581,663.251 732.581,665.251 709.5,666C 701.755,663.256 696.255,658.089 693,650.5C 690.29,626.316 687.456,602.15 684.5,578C 685.69,566.486 691.69,558.819 702.5,555C 724.97,552.117 747.303,549.283 769.5,546.5 Z"/></g>
<g><path style="opacity:1" fill="#1d2f40" d="M 265.5,603.5 C 277.809,602.237 286.975,606.903 293,617.5C 296.895,642.554 300.062,667.72 302.5,693C 300.183,708.309 291.183,716.309 275.5,717C 255.673,719.24 235.84,721.407 216,723.5C 200.718,723.215 192.052,715.548 190,700.5C 187.427,678.342 184.927,656.175 182.5,634C 183.923,621.244 190.923,613.577 203.5,611C 224.352,608.81 245.019,606.31 265.5,603.5 Z"/></g>
</svg>
